HIERARCHY
ROOT hip
{
	OFFSET 0.000000 0.000000 0.000000 
	CHANNELS 6 Xposition Yposition Zposition Xrotation Zrotation Yrotation
	JOINT abdomen
	{
		OFFSET 0.000000 3.402643 0.000000 
		CHANNELS 3 Xrotation Zrotation Yrotation
		JOINT chest
		{
			OFFSET 0.000000 8.438565 -0.680529 
			CHANNELS 3 Xrotation Zrotation Yrotation
			JOINT neck
			{
				OFFSET 0.000000 10.207942 -0.272212 
				CHANNELS 3 Xrotation Zrotation Yrotation
				JOINT head
				{
					OFFSET 0.000000 3.130431 0.000000 
					CHANNELS 3 Xrotation Zrotation Yrotation
					End Site
					{
						OFFSET 0.000000 3.130435 0.000000 
					}
				}
			}
			JOINT lCollar
			{
				OFFSET 3.470700 6.669187 -0.816635 
				CHANNELS 3 Yrotation Zrotation Xrotation
				JOINT lShldr
				{
					OFFSET 3.198488 0.000000 0.000000 
					CHANNELS 3 Zrotation Yrotation Xrotation
					JOINT lForeArm
					{
						OFFSET 10.139888 0.000000 0.000000 
						CHANNELS 3 Yrotation Zrotation Xrotation
						JOINT lHand
						{
							OFFSET 8.370511 0.000000 0.000000 
							CHANNELS 3 Zrotation Yrotation Xrotation
							End Site
							{
								OFFSET 4.083176 0.000000 0.000000 
							}
						}
					}
				}
			}
			JOINT rCollar
			{
				OFFSET -3.470700 6.669187 -0.816635 
				CHANNELS 3 Yrotation Zrotation Xrotation
				JOINT rShldr
				{
					OFFSET -3.198488 0.000000 0.000000 
					CHANNELS 3 Zrotation Yrotation Xrotation
					JOINT rForeArm
					{
						OFFSET -10.139888 0.000000 0.000000 
						CHANNELS 3 Yrotation Zrotation Xrotation
						JOINT rHand
						{
							OFFSET -8.370511 0.000000 0.000000 
							CHANNELS 3 Zrotation Yrotation Xrotation
							End Site
							{
								OFFSET -4.083176 0.000000 0.000000 
							}
						}
					}
				}
			}
		}
	}
	JOINT lThigh
	{
		OFFSET 5.308129 -1.633274 1.361059 
		CHANNELS 3 Xrotation Zrotation Yrotation
		JOINT lShin
		{
			OFFSET -2.041588 -20.007561 0.000000 
			CHANNELS 3 Xrotation Zrotation Yrotation
			JOINT lFoot
			{
				OFFSET 0.000000 -19.190928 -1.224953 
				CHANNELS 3 Xrotation Yrotation Zrotation
				End Site
				{
					OFFSET 0.000000 -2.449906 4.627600 
				}
			}
		}
	}
	JOINT rThigh
	{
		OFFSET -5.308129 -1.633274 1.361059 
		CHANNELS 3 Xrotation Zrotation Yrotation
		JOINT rShin
		{
			OFFSET 2.041588 -20.007561 0.000000 
			CHANNELS 3 Xrotation Zrotation Yrotation
			JOINT rFoot
			{
				OFFSET 0.000000 -19.190928 -1.224953 
				CHANNELS 3 Xrotation Yrotation Zrotation
				End Site
				{
					OFFSET 0.000000 -2.449906 4.627600 
				}
			}
		}
	}
}
MOTION
Frames: 10
Frame Time: 0.033333
-4.490435 8.852962 12.676052 6.896854 -10.656547 64.225075 0.000000 0.000000 0.000000 6.117763 -3.903494 -1.541463 -3.203477 4.425096 -7.950415 11.445115 -4.701269 -1.385449 11.952807 18.008661 14.079755 -83.380508 -18.843212 31.781717 1.145367 -1.030046 9.119224 9.053248 -3.237563 -1.976387 -19.208067 -13.885915 5.737725 84.014015 11.170627 23.860554 -1.229066 0.284586 18.908722 -11.029704 8.362080 -1.322716 -27.022133 5.037228 -1.035463 42.236233 -1.271900 -12.474327 0.365827 1.060635 -13.671421 -0.889066 -7.839252 -4.258171 -3.505431 2.001005 3.395369 -1.744446 4.410108 5.885988 
-3.832313 8.999302 12.840415 7.303244 -11.015648 64.544182 0.000000 0.000000 0.000000 6.054677 -4.593484 -1.414429 -3.490415 4.837434 -8.432018 11.031631 -4.107649 -1.209440 12.209830 19.094906 13.235383 -83.402298 -14.958897 26.085588 1.127374 -1.046752 8.965705 11.869287 -1.126029 -1.749571 -19.356503 -13.733287 4.506775 85.176094 8.638141 24.147274 -1.230650 0.308255 18.535244 -9.904526 8.143204 -1.294255 -26.211376 4.724357 -0.385612 33.845425 -1.607613 -7.039237 -2.381112 0.748532 -9.519067 -0.762018 -8.068913 -4.842928 -3.504852 2.009461 3.482925 -2.045184 4.319245 6.602331 
-3.135437 9.115211 12.973570 7.502656 -11.030167 64.922424 0.000000 0.000000 0.000000 6.153236 -4.660614 -2.201829 -3.219331 4.247287 -8.087668 10.892488 -3.307911 -0.972335 12.394794 19.159668 12.398371 -83.632133 -11.243840 18.095545 1.127000 -1.050897 8.994707 15.511745 1.082360 -1.445912 -18.677666 -14.207811 5.169789 86.712288 8.158049 23.686296 -1.221056 0.338675 18.075779 -8.984551 7.851129 -1.320207 -22.910904 4.255685 -0.143977 20.999510 -1.959656 -2.582526 -4.340347 0.522428 -6.337885 -0.010446 -8.530186 -5.051931 -3.499020 2.006418 3.326795 -2.256656 4.239062 7.234357 
-2.380862 9.140405 13.026196 7.392024 -10.984429 64.970543 0.000000 0.000000 0.000000 6.394028 -5.240817 -2.393325 -2.961240 4.898839 -7.921816 11.156425 -3.238976 -0.955205 12.850143 19.850908 12.154312 -84.246582 -9.366576 10.687865 1.118021 -1.059252 8.917936 17.466053 2.861741 -1.019127 -18.834888 -13.929338 4.274370 88.143898 6.200493 23.344601 -1.223924 0.366444 17.731249 -7.764997 7.836976 -1.248095 -13.056842 3.701549 2.707509 -3.447270 -2.000740 -1.502149 -0.726424 0.160182 -4.335176 1.082387 -9.094671 -4.133910 -3.484051 1.990088 2.595551 -2.250548 4.169670 7.783518 
-1.566829 9.011770 12.986080 6.831058 -10.822905 64.569870 0.000000 0.000000 0.000000 6.581170 -5.316501 -2.643796 -2.357832 5.518528 -7.280685 12.017674 -3.382671 -0.992929 13.157535 20.038395 11.572353 -84.885765 -7.459146 6.447175 1.118821 -1.067710 8.841458 17.684084 3.833334 -0.752369 -18.806156 -13.761353 3.597127 89.408669 4.735384 23.379557 -1.219848 0.384407 17.520802 -7.064854 7.844420 -1.281794 -14.213190 3.962866 3.857875 -3.504036 -2.010191 -2.779176 -7.633519 0.359751 -3.660797 2.175124 -9.357492 -1.974647 -3.463059 1.979789 2.274623 -2.863603 4.076981 8.394666 
-0.764797 8.667224 12.860914 5.990084 -10.539150 63.791973 0.000000 0.000000 0.000000 7.090808 -5.281791 -2.922498 -2.001158 6.249584 -6.497550 13.005582 -3.349487 -0.990254 13.455916 20.097075 11.459809 -85.720299 -6.771024 4.246803 1.118439 -1.071855 8.870458 17.963276 4.351570 -0.611945 -18.979347 -13.441284 3.252331 90.302727 4.208613 23.974916 -1.219579 0.392761 17.511581 -6.316363 7.879524 -1.180472 -14.404930 4.517743 4.483770 -3.534907 -2.040436 -3.538397 -7.713013 0.387168 -3.841919 3.309175 -9.350489 -0.394983 -3.396287 1.952639 0.813631 -2.469445 4.059777 8.666791 
-0.063078 8.066521 12.649093 5.005846 -9.865318 62.791882 0.000000 0.000000 0.000000 9.218300 -6.410972 -2.405407 -3.085350 8.351060 -6.803753 13.045482 -3.514828 -1.034672 13.964193 21.020561 15.212811 -86.663063 -12.359911 3.965401 1.117519 -1.064779 8.956603 18.318169 4.429564 -0.591141 -20.401430 -11.699145 2.946169 90.866966 4.700720 25.056736 -1.230560 0.392931 17.578739 -6.402751 8.038927 -1.152941 -18.975824 5.660604 4.661991 6.493634 -2.292650 -4.267269 -4.576702 0.406441 -5.129407 -6.005065 -9.286058 3.122758 17.269087 1.871295 1.036760 -9.849066 3.685068 9.364792 
0.496997 7.303022 12.405289 4.931841 -8.075857 61.589283 0.000000 0.000000 0.000000 11.975648 -8.065189 -3.180139 -3.595023 8.631601 -6.037359 11.331615 -2.897109 -0.851197 13.467312 20.718498 18.936714 -86.982124 -18.094242 4.729190 1.126138 -1.060571 9.062372 17.364075 3.812757 -0.790645 -19.416412 -10.575361 6.602082 91.558220 9.479765 25.071741 -1.226115 0.363735 17.846325 -7.592618 7.498781 -1.240556 -24.143873 5.729930 7.636797 19.424509 -2.539686 -7.282228 -5.026719 0.200754 -2.972511 -14.421912 -9.969576 5.508690 35.590614 1.244216 3.087212 -12.345194 3.486299 10.396542 
0.818681 6.774680 12.113109 7.363679 -5.917937 61.764950 0.000000 0.000000 0.000000 15.561019 -13.849894 -4.527892 -4.842497 11.156634 -7.371290 10.626705 -2.352050 -0.688865 12.523129 22.008116 25.000000 -86.114670 -31.082302 6.864774 1.141472 -1.033805 9.484223 15.007286 2.107974 -1.126876 -19.710264 -6.821528 8.773827 92.230865 12.740360 24.869246 -1.231334 0.342993 18.104635 -9.183457 6.977120 -1.356335 -24.759863 2.585844 11.350868 22.693293 -2.569118 -8.982931 -4.535697 -0.101158 -0.339920 -22.584225 -13.269910 6.219203 50.211834 0.363663 4.639571 -10.654440 3.528567 10.497039 
1.102465 6.462388 12.077288 8.718383 -5.241806 63.298695 0.000000 0.000000 0.000000 16.657082 -16.789038 -6.082864 -5.110317 12.043958 -8.445831 8.867395 -2.275367 -0.674919 10.617713 23.189051 25.000000 -85.985878 -34.441437 7.637382 1.179189 -0.919966 10.988198 12.019095 -0.828820 -1.688186 -19.408047 -5.246922 7.168042 93.389908 10.673779 25.457376 -1.230197 0.344352 18.047041 -10.122025 6.989506 -1.438342 -25.470697 0.876476 12.582417 24.633728 -2.569567 -10.996246 -5.165501 -0.124857 0.381786 -29.001629 -14.110588 7.819003 60.024216 -0.418528 3.191114 -7.187499 3.416771 12.526679 
